<svg width="2000" height="318" viewBox="0 0 2000 318" fill="none" xmlns="http://www.w3.org/2000/svg">
<path d="M1672.76 172.222C1672.54 187.103 1671.8 201.988 1670.61 216.723L1670.09 222.942L1666.01 227.754C1640.91 257.151 1612.92 285.063 1583.44 310.095L1578.61 314.168L1572.37 314.684C1533.76 317.72 1494.19 317.72 1455.57 314.684L1449.33 314.168L1444.51 310.095C1415.03 285.063 1387.04 257.151 1361.94 227.754L1357.86 222.942L1357.34 216.723C1354.29 178.217 1354.29 138.752 1357.34 100.247L1357.86 94.0275L1361.94 89.2148C1387.04 59.8184 1415.03 31.9013 1444.51 6.87462L1449.33 2.80168L1455.57 2.28572C1470.28 1.09853 1485.41 0.431881 1500.26 0.135086C1500.86 14.5776 1505.76 27.8284 1513.71 38.8646C1497.45 38.8646 1481.04 39.4537 1465 40.5632C1440.42 61.8184 1417.04 85.1419 1395.73 109.653C1393.43 142.008 1393.43 174.961 1395.73 207.317C1417.04 231.827 1440.42 255.151 1465 276.406C1497.45 278.698 1530.49 278.698 1562.95 276.406C1587.52 255.151 1610.91 231.827 1632.22 207.317C1633.34 191.326 1633.93 174.893 1633.93 158.752C1644.99 166.601 1658.36 171.628 1672.76 172.222ZM1661.4 130.164C1661.48 130.237 1661.63 130.237 1661.77 130.31L1662.45 130.679C1662.07 130.529 1661.77 130.383 1661.4 130.164Z" fill="white"/>
<path fill-rule="evenodd" clip-rule="evenodd" d="M1662.27 131.023L1672.45 135.88L1672.63 147.972C1672.75 156.208 1672.73 164.458 1672.58 172.708C1658.14 172.122 1644.79 167.26 1633.79 159.358C1615.76 146.397 1604.01 125.241 1604.01 101.328C1604.01 83.3358 1589.41 68.7358 1571.44 68.7358C1547.55 68.7358 1526.38 56.9879 1513.39 38.9588L1513.38 38.9404C1505.46 27.9297 1500.58 14.5795 1500 0.130537C1508.24 -0.0251243 1516.48 -0.0388638 1524.72 0.0755927L1536.8 0.254151L1542 11.1733C1547.24 22.1749 1558.46 29.7885 1571.44 29.7885C1610.9 29.7885 1642.93 61.8409 1642.93 101.328C1642.93 114.175 1650.39 125.25 1661.2 130.524C1661.55 130.693 1661.91 130.867 1662.27 131.023Z" fill="white"/>
<path fill-rule="evenodd" clip-rule="evenodd" d="M1670.97 44.125C1657.67 46.436 1642.91 46.413 1629.61 44.0652C1627.35 30.4387 1627.37 15.3346 1629.67 1.71732C1642.97 -0.593649 1657.73 -0.570629 1671.03 1.77717C1673.29 15.4036 1673.27 30.5078 1670.97 44.125Z" fill="white"/>
<path d="M957.298 144.741C957.522 129.86 958.261 114.974 959.449 100.24L959.974 94.0206L964.056 89.2079C989.151 59.8115 1017.15 31.899 1046.62 6.86772L1051.45 2.79478L1057.69 2.27881C1096.3 -0.757635 1135.88 -0.757631 1174.49 2.27882L1180.73 2.79479L1185.56 6.86774C1215.03 31.899 1243.02 59.8115 1268.12 89.208L1272.21 94.0206L1272.73 100.24C1275.77 138.745 1275.77 178.21 1272.73 216.716L1272.21 222.935L1268.12 227.748C1243.02 257.144 1215.03 285.061 1185.56 310.088L1180.73 314.161L1174.49 314.677C1159.79 315.864 1144.65 316.531 1129.8 316.827C1129.2 302.385 1124.3 289.134 1116.36 278.098C1132.62 278.098 1149.02 277.509 1165.06 276.399C1189.64 255.144 1213.03 231.821 1234.34 207.31C1236.64 174.954 1236.64 142.001 1234.34 109.646C1213.03 85.135 1189.64 61.8114 1165.06 40.5563C1132.61 38.2641 1099.57 38.2641 1067.12 40.5563C1042.54 61.8114 1019.15 85.135 997.84 109.646C996.726 125.636 996.132 142.07 996.132 158.211C985.069 150.362 971.704 145.334 957.298 144.741ZM968.658 186.799C968.585 186.726 968.434 186.726 968.288 186.653L967.617 186.283C967.992 186.434 968.288 186.58 968.658 186.799Z" fill="white"/>
<path fill-rule="evenodd" clip-rule="evenodd" d="M967.795 186.417L957.615 181.589L957.432 169.573C957.318 161.387 957.332 153.188 957.482 144.989C971.929 145.572 985.271 150.404 996.272 158.257C1014.31 171.138 1026.06 192.164 1026.06 215.928C1026.06 233.81 1040.65 248.32 1058.63 248.32C1082.52 248.32 1103.68 259.995 1116.68 277.913L1116.68 277.931C1124.61 288.874 1129.48 302.142 1130.06 316.501C1121.83 316.656 1113.58 316.67 1105.35 316.556L1093.27 316.379L1088.07 305.527C1082.83 294.593 1071.61 287.027 1058.63 287.027C1019.16 287.027 987.133 255.172 987.133 215.928C987.133 203.161 979.672 192.155 968.862 186.913C968.511 186.745 968.151 186.572 967.795 186.417Z" fill="white"/>
<path fill-rule="evenodd" clip-rule="evenodd" d="M959.094 273.532C972.399 271.275 987.153 271.298 1000.45 273.591C1002.71 286.9 1002.69 301.653 1000.4 314.954C987.09 317.211 972.336 317.189 959.035 314.895C956.776 301.586 956.799 286.833 959.094 273.532Z" fill="white"/>
<path fill-rule="evenodd" clip-rule="evenodd" d="M183.174 313.334H0L0 10.7598H40.9589V275.842H183.174V313.334ZM321.667 244.883L294.283 313.334H250.708L374.457 10.7598H404.087L527.397 313.334H482.954L455.799 244.883H321.667ZM441.616 209.136L389.023 76.5471L335.973 209.136H441.616ZM836.078 189.513H731.119V152.02H879.269V158.124C879.269 193.291 873.023 222.797 860.534 246.628C848.333 270.172 831.192 287.903 809.114 299.819C787.329 311.739 762.347 317.697 734.169 317.697C712.964 317.697 693.064 313.772 674.475 305.923C656.174 297.786 640.05 286.597 626.105 272.351C612.452 258.11 601.708 241.543 593.863 222.651C586.018 203.758 582.096 183.409 582.096 161.61C582.096 139.812 586.018 119.609 593.863 101.009C601.708 82.1165 612.598 65.5498 626.543 51.304C640.484 37.0628 656.753 26.0198 675.347 18.1705C694.228 10.3211 714.708 6.39648 736.785 6.39648C760.895 6.39648 783.119 11.0476 803.452 20.3498C823.785 29.6521 840.781 43.0206 854.434 60.46L826.11 88.8008C816.525 74.8474 803.886 64.2385 788.201 56.974C772.516 49.4171 755.374 45.6386 736.785 45.6386C714.708 45.6386 695.101 50.5775 677.959 60.46C661.11 70.3425 647.895 84.0035 638.306 101.443C629.014 118.882 624.365 138.94 624.365 161.61C624.365 184.574 629.155 204.773 638.744 222.212C648.329 239.651 661.256 253.312 677.525 263.195C693.79 273.077 712.384 278.021 733.297 278.021C754.502 278.021 772.804 273.95 788.201 265.813C803.886 257.676 815.941 245.755 824.365 230.061C830.511 218.402 834.416 204.887 836.078 189.513ZM1803.05 88.5495V313.334H1762.09V10.7598H1790.85L1959.04 234.626V10.7598H2000V313.334H1971.24L1803.05 88.5495Z" fill="white"/>
</svg>
